<?xml version="1.0" standalone="no"?>
<!DOCTYPE svg PUBLIC "-//W3C//DTD SVG 20010904//EN"
 "http://www.w3.org/TR/2001/REC-SVG-20010904/DTD/svg10.dtd">
<svg version="1.0" xmlns="http://www.w3.org/2000/svg"
 width="577.000000pt" height="577.000000pt" viewBox="0 0 577.000000 577.000000"
 preserveAspectRatio="xMidYMid meet">
<metadata>
Created by potrace 1.14, written by Peter Selinger 2001-2017
</metadata>
<g transform="translate(0.000000,577.000000) scale(0.100000,-0.100000)"
fill="#000000" stroke="none">
<path d="M3410 5641 c0 -136 0 -135 85 -197 22 -16 64 -48 93 -71 30 -24 57
-41 61 -39 9 6 8 402 -1 411 -4 4 -59 10 -123 12 l-115 5 0 -121z"/>
<path d="M2934 5683 c-44 -31 -81 -60 -84 -63 -6 -7 -227 -175 -270 -205 -29
-20 -532 -400 -581 -439 -15 -12 -38 -29 -53 -40 -42 -30 -22 -35 66 -16 115
26 142 30 228 36 57 5 85 12 115 32 56 36 639 475 643 484 12 28 41 8 392
-266 l205 -161 80 0 c44 -1 100 -5 124 -9 49 -9 167 -61 173 -75 2 -5 15 -13
31 -16 41 -11 34 10 -15 42 -39 25 -277 211 -593 462 -67 53 -136 107 -154
121 -18 14 -38 30 -44 35 -7 6 -41 32 -77 60 -36 27 -71 55 -78 62 -7 7 -17
13 -21 13 -5 0 -44 -26 -87 -57z"/>
<path d="M3100 5170 c-30 -28 -63 -53 -72 -56 -10 -3 -18 -9 -18 -13 0 -5 -45
-31 -100 -60 -55 -28 -100 -48 -100 -45 0 4 -6 2 -12 -4 -13 -10 -155 -47
-213 -56 -84 -12 -138 -19 -245 -31 -30 -4 -68 -9 -85 -11 -43 -8 -74 -12
-144 -19 -34 -4 -71 -8 -81 -10 -10 -2 -40 -7 -67 -10 -140 -21 -284 -91 -355
-174 -47 -55 -90 -144 -94 -192 -3 -42 15 -112 34 -131 19 -19 24 -3 11 40
-32 109 38 223 191 313 64 38 165 65 280 74 94 8 124 11 178 19 59 8 108 14
172 21 257 26 479 103 629 218 68 52 161 150 161 169 0 16 -16 7 -70 -42z"/>
<path d="M3558 4975 c-27 -6 -48 -10 -48 -8 0 2 -13 -3 -30 -12 -16 -8 -33
-16 -37 -16 -15 -1 -79 -33 -118 -60 -100 -68 -142 -134 -152 -235 -6 -69 -7
-71 -44 -78 -56 -10 -137 -48 -171 -80 -54 -51 -80 -109 -84 -187 -3 -61 -1
-68 26 -100 32 -37 41 -23 16 25 -7 15 -12 40 -10 57 6 52 55 131 99 159 36
23 135 60 162 60 6 0 24 -28 42 -62 32 -66 84 -128 138 -166 55 -39 151 -82
182 -82 38 0 49 -16 16 -24 -37 -9 -182 -111 -231 -163 -59 -61 -118 -151
-145 -221 -34 -84 -33 -234 0 -317 52 -128 131 -214 251 -272 87 -42 125 -53
201 -56 155 -7 305 74 389 210 21 35 33 43 75 52 62 14 173 70 238 119 49 37
141 150 171 208 39 78 48 121 51 239 2 65 7 137 11 160 4 22 9 65 10 95 2 30
7 74 12 97 8 35 5 49 -15 90 -14 26 -28 50 -32 53 -14 11 -58 86 -64 111 -4
14 -2 40 3 57 10 37 -2 42 -24 10 -22 -31 -20 -90 4 -121 11 -14 20 -28 20
-32 0 -4 15 -26 34 -49 19 -23 39 -55 45 -71 9 -25 8 -27 -2 -11 -45 69 -83
88 -112 56 -37 -41 6 -136 65 -142 14 -2 27 -9 30 -16 7 -16 0 -92 -9 -92 -3
0 -17 23 -29 50 -32 66 -134 171 -200 204 -167 84 -394 -6 -406 -161 -7 -95
82 -186 194 -198 19 -2 39 -4 43 -4 5 -1 6 -5 2 -10 -8 -14 -16 -70 -16 -123
-1 -89 64 -178 130 -178 34 0 130 56 169 99 18 20 49 63 68 96 l35 60 -5 -50
c-7 -64 -20 -104 -57 -180 -35 -72 -57 -101 -129 -174 -72 -74 -114 -102 -227
-154 -30 -14 -33 -14 -33 2 0 9 4 21 9 26 11 11 21 58 26 115 7 95 -93 160
-172 111 -42 -26 -83 -89 -87 -134 -7 -68 47 -145 103 -150 12 -1 21 -4 21 -7
0 -10 -86 -98 -120 -123 -70 -50 -183 -72 -270 -52 -49 11 -141 57 -197 98
-112 82 -153 163 -159 312 -2 66 1 90 21 138 75 186 252 350 441 409 41 12 74
26 74 30 0 5 -21 9 -47 9 -27 1 -64 3 -83 5 -139 16 -269 108 -337 238 -18 34
-7 45 37 40 384 -45 509 -18 677 147 23 23 43 49 46 59 25 96 -71 219 -201
256 -71 21 -222 26 -284 9z m294 -48 c85 -39 151 -110 162 -173 5 -24 0 -37
-18 -57 -44 -48 -147 -105 -221 -123 -5 -2 -21 -6 -35 -9 -30 -7 -196 -9 -207
-2 -13 8 -113 20 -193 23 -41 1 -78 3 -82 3 -11 2 2 92 19 128 17 36 119 133
140 133 7 0 13 4 13 8 0 8 45 30 133 66 20 8 56 18 80 21 23 4 43 8 44 9 12
11 122 -7 165 -27z m417 -563 c69 -31 125 -81 181 -163 51 -74 56 -112 24
-173 -10 -20 -30 -58 -43 -84 -51 -100 -165 -185 -217 -162 -33 15 -61 95 -59
164 4 93 11 108 52 119 83 20 136 73 110 108 -29 40 -98 22 -138 -35 -31 -44
-38 -49 -79 -44 -75 8 -133 50 -155 111 -15 46 -7 76 33 118 73 77 178 92 291
41z m231 4 c11 -12 20 -25 20 -29 0 -4 3 -14 6 -23 4 -11 1 -16 -10 -16 -20 0
-53 29 -56 50 -7 45 8 52 40 18z m-210 -216 c0 -14 -32 -39 -63 -51 -35 -14
-36 2 -1 34 26 24 64 34 64 17z m-281 -511 c30 -23 30 -69 -1 -147 -22 -55
-26 -59 -55 -58 -18 1 -38 8 -46 15 -29 30 -42 93 -24 117 5 6 7 12 3 12 -12
0 49 62 69 71 27 11 27 11 54 -10z"/>
<path d="M2399 4773 c-1 -5 -3 -56 -4 -116 -3 -142 -13 -241 -25 -245 -5 -2
-49 -28 -97 -59 -48 -31 -102 -61 -118 -68 -30 -13 -80 -10 -102 7 -6 5 -13 5
-16 1 -9 -15 21 -45 59 -58 47 -16 112 -2 200 43 34 18 64 32 66 32 3 0 4 -10
3 -22 -2 -13 -6 -46 -9 -74 -5 -43 -34 -187 -52 -256 -2 -10 -7 -28 -10 -40
-47 -190 -120 -327 -252 -469 -110 -119 -204 -169 -342 -182 -103 -10 -188 45
-238 153 -21 45 -25 68 -25 140 1 88 2 97 21 143 7 16 12 35 12 43 0 12 18 14
114 8 98 -6 122 -4 166 12 55 20 89 56 84 89 -10 65 -61 95 -155 91 -99 -4
-158 -37 -219 -123 -12 -16 -29 -22 -77 -27 -66 -6 -154 -31 -190 -54 -38 -24
-17 -30 40 -11 93 31 194 44 190 24 -2 -5 -12 -36 -23 -68 -65 -185 1 -393
147 -468 69 -34 200 -37 298 -5 64 20 142 62 171 90 6 6 27 25 47 43 57 50
174 211 217 298 37 76 81 209 94 285 3 19 8 46 10 60 13 71 26 176 31 237 7
87 12 114 23 125 15 15 121 48 154 48 52 0 103 -18 128 -45 42 -44 56 -25 19
27 -51 72 -171 105 -264 73 -21 -8 -40 -13 -41 -12 -1 1 -4 76 -7 167 -4 91
-6 166 -7 168 -1 6 -20 1 -21 -5z m-637 -873 c88 -42 8 -116 -122 -113 -37 1
-140 7 -140 9 0 0 7 15 16 32 38 78 160 113 246 72z"/>
<path d="M1377 2894 c-1 -1 -23 -5 -48 -8 -123 -16 -214 -65 -285 -152 -39
-48 -98 -171 -107 -224 -3 -14 -10 -45 -17 -70 -30 -110 -15 -243 36 -319 29
-44 103 -93 165 -110 68 -19 254 -16 332 5 4 1 13 2 20 3 30 3 41 25 62 120
l22 101 -26 -6 c-14 -3 -40 -10 -57 -14 -47 -12 -195 -5 -227 11 -53 25 -65
88 -38 212 27 123 80 198 156 218 57 16 161 18 223 3 29 -6 54 -9 56 -5 2 3 7
24 11 46 5 22 9 42 10 45 27 103 27 109 -13 119 -55 15 -129 24 -205 25 -38 1
-69 0 -70 0z"/>
<path d="M2912 2888 c-114 -13 -207 -70 -251 -156 -48 -95 -59 -197 -27 -264
21 -44 68 -78 164 -117 87 -36 102 -49 97 -87 -3 -35 -38 -64 -79 -65 -109 -5
-215 5 -267 26 -13 5 -20 -7 -34 -62 -9 -37 -19 -82 -22 -100 l-4 -31 75 -17
c115 -26 318 -24 414 4 52 16 116 57 144 93 41 54 70 145 71 221 0 60 -3 71
-29 104 -27 33 -161 112 -192 113 -30 0 -62 33 -62 62 0 34 43 83 65 74 8 -3
15 -2 15 2 0 11 143 3 199 -12 36 -9 51 -10 52 -2 1 20 9 60 25 119 16 63 12
75 -26 78 -8 0 -24 2 -35 4 -92 18 -204 23 -293 13z"/>
<path d="M4467 2885 c-129 -22 -205 -83 -250 -203 -19 -51 -25 -83 -23 -133 3
-94 31 -129 145 -181 126 -57 129 -59 135 -81 7 -30 -24 -79 -54 -84 -68 -13
-185 -6 -273 16 -45 11 -40 17 -66 -101 l-19 -87 57 -12 c31 -7 67 -14 81 -16
36 -6 261 -5 289 1 116 25 175 58 219 122 33 49 61 141 63 207 4 101 -40 142
-233 220 -20 9 -41 24 -46 34 -14 27 4 77 32 93 40 21 221 14 268 -11 18 -10
20 -5 52 123 10 41 11 60 3 65 -18 11 -110 30 -139 29 -16 -1 -28 1 -28 4 0 9
-149 5 -213 -5z"/>
<path d="M2040 2870 c-4 -3 -26 -39 -48 -80 -22 -41 -79 -147 -126 -235 -47
-87 -86 -162 -86 -166 0 -4 -7 -12 -15 -19 -8 -7 -13 -16 -10 -20 3 -4 -2 -13
-10 -20 -8 -7 -15 -16 -15 -21 0 -4 -31 -66 -69 -136 -39 -71 -71 -136 -73
-143 -2 -12 23 -14 136 -15 l138 0 34 67 34 68 120 0 120 0 1 -47 c2 -97 -11
-88 124 -88 66 -1 125 1 131 2 6 2 10 16 8 31 -11 103 -14 133 -19 177 -3 28
-7 77 -10 110 -3 33 -7 87 -10 120 -3 33 -8 87 -11 120 -3 33 -7 76 -9 95 -2
19 -7 64 -10 100 -10 117 9 105 -164 105 -84 0 -156 -2 -161 -5z m117 -317 c1
-32 4 -93 8 -135 5 -76 5 -78 -17 -79 -36 -1 -123 2 -126 6 -4 4 122 264 128
265 3 0 6 -26 7 -57z"/>
<path d="M3611 2865 c-4 -5 -30 -50 -56 -100 -73 -137 -115 -215 -145 -270
-15 -27 -47 -86 -70 -130 -24 -44 -55 -102 -70 -130 -89 -163 -110 -204 -110
-212 0 -10 266 -11 277 0 4 4 22 34 38 65 l30 57 120 0 120 0 3 -60 c2 -33 7
-62 12 -65 7 -4 218 -6 242 -1 4 0 5 27 3 59 -7 102 -14 186 -19 232 -12 106
-16 148 -21 200 -4 54 -10 111 -20 220 -4 30 -6 72 -7 93 -1 21 -6 41 -12 45
-18 11 -306 9 -315 -3z m123 -335 c6 -74 10 -165 7 -185 0 -6 -31 -9 -75 -7
l-75 4 67 133 c37 73 68 133 69 132 0 -1 4 -36 7 -77z"/>
<path d="M3169 1946 c-2 -2 -22 -7 -44 -10 -22 -3 -49 -8 -60 -10 -11 -2 -44
-7 -72 -11 -39 -5 -53 -12 -54 -24 -4 -70 -7 -153 -10 -251 -4 -110 -3 -115
16 -113 26 2 83 11 115 18 14 3 43 8 64 10 51 7 52 7 51 52 0 36 -2 38 -30 37
-16 -1 -48 -4 -71 -8 -43 -7 -42 -8 -35 45 1 4 18 10 39 13 66 12 67 13 67 56
1 44 -3 46 -66 31 -36 -8 -36 -8 -35 22 2 33 15 39 106 49 33 4 35 7 38 42 3
35 -7 63 -19 52z"/>
<path d="M2640 1855 c-48 -9 -55 -13 -56 -35 -1 -14 -4 -100 -8 -191 l-7 -166
53 8 c29 5 68 11 87 14 47 7 112 38 134 63 27 30 44 98 45 172 0 140 -59 172
-248 135z m126 -90 c6 -14 8 -65 5 -116 -1 -35 -29 -67 -63 -73 l-27 -4 4 81
c2 45 4 92 4 105 1 18 7 22 36 22 22 0 38 -6 41 -15z"/>
<path d="M343 1332 c-35 -2 -63 -4 -63 -6 0 -2 -11 -54 -25 -117 -34 -152 -29
-129 -80 -354 -47 -209 -53 -234 -61 -275 -3 -14 -9 -41 -14 -60 -6 -19 -10
-38 -10 -42 0 -4 61 -6 135 -6 106 1 135 4 135 15 0 18 0 18 11 55 5 18 12 45
14 60 3 15 16 78 30 140 14 62 27 118 28 125 7 30 15 13 61 -123 27 -79 53
-143 57 -142 4 2 42 48 85 103 42 55 81 102 86 103 4 2 8 10 8 18 0 8 3 14 8
14 4 0 15 12 24 28 16 25 17 25 18 5 0 -12 -18 -103 -40 -202 -22 -99 -40
-185 -40 -191 0 -6 46 -10 129 -10 141 0 134 -3 145 60 2 14 11 52 19 85 9 33
18 71 20 85 3 14 15 70 27 125 12 55 24 111 26 125 3 14 14 61 24 105 15 66
26 111 35 155 1 3 4 14 7 25 4 11 9 37 12 58 6 41 12 38 -84 38 -177 0 -162 4
-202 -48 -20 -27 -81 -108 -136 -181 l-101 -133 -16 30 c-8 17 -13 31 -11 31
3 0 -2 16 -10 35 -8 19 -14 37 -14 40 0 7 3 -4 -34 115 l-32 105 -55 5 c-30 3
-82 4 -116 2z"/>
<path d="M1569 1332 c-33 -3 -40 -9 -62 -52 -23 -45 -61 -116 -142 -265 -94
-173 -111 -205 -139 -260 -17 -33 -33 -62 -36 -65 -3 -3 -12 -18 -20 -35 -8
-16 -29 -56 -47 -87 -57 -104 -64 -97 97 -97 l140 0 34 68 35 68 118 -1 c132
-1 120 8 122 -88 l1 -46 130 -1 131 -2 -6 73 c-3 40 -7 89 -9 108 -2 19 -7 73
-11 119 -4 47 -9 93 -11 104 -2 10 -6 59 -9 108 -3 49 -8 97 -9 107 -2 9 -7
62 -12 117 -4 55 -8 103 -8 107 -1 3 -4 9 -8 13 -7 7 -215 12 -279 7z m88
-369 c3 -54 6 -114 7 -133 l1 -35 -65 0 c-36 -1 -70 0 -76 3 -7 2 15 56 55
136 36 74 67 132 69 131 2 -2 6 -47 9 -102z"/>
<path d="M2276 1330 l-50 -5 -17 -70 c-10 -38 -18 -71 -18 -73 -1 -8 -12 -56
-27 -117 -9 -38 -19 -83 -21 -100 -7 -40 -11 -59 -13 -62 -2 -2 -3 -6 -4 -10
-2 -9 -14 -70 -20 -98 -2 -11 -9 -40 -16 -65 -7 -25 -14 -54 -15 -65 -5 -35
-24 -119 -34 -152 -5 -18 -6 -35 -1 -38 4 -2 104 -4 221 -3 296 2 384 21 474
99 62 55 121 175 151 309 4 19 9 42 11 50 11 48 14 170 4 205 -12 47 -61 125
-77 125 -6 0 -17 7 -24 15 -18 22 -105 45 -190 51 -111 8 -278 10 -334 4z
m302 -204 c42 -10 57 -49 48 -128 -13 -129 -62 -268 -108 -306 -16 -13 -120
-29 -156 -24 -24 4 -24 10 -4 87 6 22 13 51 15 65 3 14 10 45 17 70 7 25 13
54 15 65 7 50 38 171 46 175 11 7 86 4 127 -4z"/>
<path d="M3141 1330 l-55 -5 -18 -85 c-10 -47 -20 -94 -22 -105 -2 -11 -11
-50 -20 -86 -8 -37 -17 -78 -20 -90 -3 -13 -7 -33 -10 -44 -15 -67 -26 -114
-30 -140 -3 -16 -10 -45 -15 -62 -5 -18 -8 -33 -6 -33 3 0 1 -10 -4 -23 -5
-13 -12 -39 -15 -58 -3 -19 -10 -50 -16 -69 -5 -19 -10 -40 -10 -46 0 -9 83
-12 308 -13 284 0 308 1 310 17 1 9 10 54 20 99 l19 83 -126 1 c-69 0 -148 0
-174 -1 l-48 -2 6 39 c3 21 11 52 17 69 l11 30 124 -1 c148 -1 129 -22 167
182 0 5 -55 9 -122 10 -68 1 -125 3 -127 5 -5 5 20 117 28 124 3 3 82 5 176 5
l171 1 6 26 c3 15 8 35 11 44 4 15 10 45 17 83 1 6 5 16 9 23 5 7 2 14 -6 18
-19 7 -485 11 -556 4z"/>
<path d="M3865 1330 l-60 -5 -22 -100 c-13 -55 -25 -109 -27 -120 -2 -11 -9
-40 -15 -65 -5 -25 -12 -56 -15 -70 -2 -14 -14 -68 -26 -120 -12 -52 -23 -102
-25 -110 -2 -8 -15 -66 -29 -129 -14 -62 -26 -120 -26 -127 0 -11 27 -14 130
-14 72 0 130 3 131 8 0 4 2 14 4 22 10 40 119 522 146 645 16 77 32 150 35
162 5 20 2 22 -68 25 -40 2 -100 1 -133 -2z"/>
<path d="M4306 1330 l-99 -5 -18 -80 c-10 -44 -25 -109 -33 -145 -8 -36 -26
-117 -40 -180 -15 -63 -28 -124 -30 -135 -3 -11 -9 -40 -15 -65 -5 -25 -12
-57 -15 -73 -2 -15 -7 -35 -10 -45 -5 -18 -14 -58 -23 -104 l-5 -27 131 0 130
-1 10 38 c5 20 18 74 27 120 l18 83 45 -3 46 -3 7 -50 c17 -117 21 -141 22
-160 1 -19 8 -20 136 -20 129 0 135 1 133 20 -8 73 -15 132 -18 145 -2 8 -7
38 -10 66 -5 47 -4 51 21 64 91 49 158 200 158 356 0 95 -49 157 -143 184 -64
18 -268 28 -425 20z m257 -212 c21 -16 27 -54 15 -93 -6 -16 -10 -36 -11 -43
0 -8 -13 -27 -28 -43 -25 -26 -33 -29 -94 -29 l-67 0 7 28 c4 15 9 36 11 47
16 83 27 131 31 138 7 12 118 8 136 -5z"/>
<path d="M5307 1330 c-31 -4 -40 -12 -58 -45 -12 -22 -50 -92 -84 -155 -35
-63 -79 -146 -100 -185 -20 -38 -51 -97 -69 -130 -18 -33 -52 -96 -75 -140
-24 -44 -59 -108 -78 -141 l-34 -62 139 0 c76 0 142 2 148 6 5 4 23 34 39 67
l30 60 118 1 c64 0 118 -3 118 -8 5 -29 7 -53 8 -88 l1 -41 128 3 127 3 -1 40
c-2 49 -14 201 -19 235 -2 14 -6 59 -10 100 -3 41 -8 95 -10 120 -3 25 -7 68
-10 95 -3 28 -7 82 -10 120 -8 93 -13 137 -19 142 -6 7 -234 9 -279 3z m89
-386 c3 -65 6 -121 6 -124 1 -24 -7 -27 -72 -25 -39 0 -71 3 -73 6 -3 5 126
269 130 265 2 -2 6 -57 9 -122z"/>
<path d="M3813 247 c-5 -6 -35 -61 -69 -122 -49 -89 -58 -111 -46 -116 24 -9
59 1 78 22 23 25 70 25 77 0 4 -18 48 -33 65 -22 6 3 8 24 7 46 -11 136 -17
190 -21 196 -7 12 -83 8 -91 -4z m33 -144 c-2 -3 -11 -3 -20 -1 -13 3 -13 7 2
38 l17 35 3 -33 c2 -19 1 -36 -2 -39z"/>
<path d="M4010 253 c0 -2 -9 -43 -19 -91 -34 -152 -34 -152 -9 -153 39 -2 141
1 143 3 1 2 5 15 9 31 6 26 5 27 -39 27 -52 0 -51 -2 -27 97 10 40 16 76 13
81 -6 8 -71 13 -71 5z"/>
<path d="M4161 251 c-6 -4 -8 -22 -6 -41 3 -19 7 -62 10 -95 3 -33 7 -69 10
-80 2 -11 4 -22 4 -25 2 -8 82 -3 91 7 4 4 29 51 56 103 26 52 54 102 62 112
16 20 8 25 -38 24 -33 -1 -37 -5 -71 -74 -19 -39 -38 -74 -40 -77 -3 -2 -6 28
-7 66 -1 39 -4 75 -7 79 -6 9 -49 10 -64 1z"/>
<path d="M4414 248 c-3 -4 -3 -8 0 -8 3 0 -1 -18 -9 -40 -8 -22 -12 -40 -10
-40 2 0 -3 -24 -11 -52 -20 -78 -18 -95 11 -100 14 -3 28 -2 31 3 2 5 16 4 29
-1 14 -5 25 -6 25 -1 0 4 13 6 29 3 23 -3 30 1 36 17 9 29 -2 43 -33 41 -52
-4 -60 -1 -55 18 3 13 13 18 33 17 36 -2 45 4 52 32 5 20 2 23 -27 23 -69 0
-48 37 24 42 39 3 45 6 48 28 l3 26 -86 0 c-47 0 -87 -3 -90 -8z"/>
<path d="M4625 251 c-5 -9 -55 -224 -55 -238 0 -14 65 -9 74 6 5 8 11 30 13
50 7 56 19 56 39 0 15 -41 25 -54 45 -60 34 -9 46 -1 52 36 3 17 14 68 26 114
11 46 18 88 15 93 -3 5 -20 7 -37 5 -30 -3 -33 -7 -48 -63 l-16 -59 -20 60
c-18 56 -22 60 -52 61 -18 0 -34 -2 -36 -5z"/>
<path d="M4946 246 c-15 -12 -130 -225 -125 -231 18 -17 84 -2 93 20 8 23 63
19 71 -4 6 -20 29 -29 58 -23 15 3 17 11 13 55 -4 29 -8 81 -11 116 -3 35 -8
67 -11 70 -10 11 -73 9 -88 -3z m36 -128 c-2 -10 -13 -18 -24 -18 -10 0 -18 3
-16 8 29 60 32 64 39 45 3 -10 4 -26 1 -35z"/>
<path d="M5141 236 c-10 -26 -24 -104 -19 -109 1 -2 -3 -11 -11 -20 -7 -10
-11 -17 -8 -17 3 0 1 -17 -4 -37 -9 -43 -2 -51 41 -45 23 3 30 10 30 26 1 53
35 59 43 7 4 -29 21 -39 53 -33 23 4 25 8 21 43 -3 28 0 43 14 55 36 33 44
103 15 133 -9 8 -43 14 -91 16 -70 3 -77 1 -84 -19z m109 -61 c0 -25 -26 -46
-47 -38 -8 3 -9 12 -1 34 13 37 48 41 48 4z"/>
<path d="M5384 248 c-9 -14 -50 -199 -49 -223 0 -16 6 -19 30 -16 45 5 39 -8
70 152 2 9 8 33 13 53 6 20 7 38 4 40 -14 8 -63 3 -68 -6z"/>
<path d="M5552 246 c-9 -10 -47 -80 -101 -181 -26 -50 -28 -70 -4 -56 11 6 24
6 35 0 14 -8 20 -5 29 14 14 31 74 37 82 8 5 -21 53 -33 65 -17 5 6 8 22 7 36
-2 14 -6 63 -10 110 -4 47 -9 87 -12 90 -9 10 -83 7 -91 -4z m38 -111 c0 -28
-4 -35 -20 -35 -11 0 -20 3 -20 6 0 7 33 64 37 64 2 0 3 -16 3 -35z"/>
</g>
</svg>
